<svg width="64" height="64" viewBox="0 0 55 57" fill="none">
<path d="M22.7801 22.0797C22.5901 22.0497 22.4401 21.8797 22.5501 21.6897L23.7801 19.9497L21.7101 15.0697C20.0601 15.6597 18.2601 14.7997 17.7601 13.0997L16.6501 7.70975C16.6301 7.59975 16.6901 7.49975 16.7901 7.45975L20.8901 5.73975C21.0501 5.73975 21.2101 6.03975 21.3101 6.16975C22.2101 7.40975 23.2701 8.88975 24.0601 10.1997C24.3101 10.6097 24.4801 10.9897 24.5501 11.4597C24.7301 12.7197 24.0201 14.0497 22.8501 14.5697L24.9501 19.4697L27.0401 19.7697C27.2501 19.8197 27.2701 20.0497 27.1601 20.2097L22.7901 22.0697L22.7801 22.0797ZM23.5201 21.2297L26.0201 20.1697L24.6901 19.9697L24.5501 19.8397L22.3001 14.5597C22.2001 14.2097 22.5201 14.2097 22.7501 14.0797C24.0001 13.3797 24.4401 11.8897 23.7501 10.6297L20.8101 6.29975L17.1901 7.83975L18.2501 12.9697C18.6701 14.3497 20.0601 15.0597 21.4301 14.6397C21.6801 14.5597 21.9001 14.3297 22.0801 14.6497L24.3201 19.9297V20.1197L23.5301 21.2197L23.5201 21.2297Z" fill="currentColor" stroke="currentColor" stroke-width="0.5" stroke-miterlimit="10"/>
<path d="M20.7899 7.34995C20.9399 7.23995 21.0899 7.28995 21.1899 7.43995C21.8099 8.60995 23.3799 10.12 23.6399 11.39C23.6699 11.54 23.7299 11.79 23.5799 11.88C23.1499 12.14 23.1699 11.49 23.0999 11.26C23.0499 11.12 22.9799 10.98 22.9199 10.84L20.7299 7.63995C20.6799 7.53995 20.6999 7.39995 20.7899 7.33995V7.34995Z" fill="currentColor" stroke="currentColor" stroke-width="0.5" stroke-miterlimit="10"/>
<path d="M23.1899 12.4298C23.3499 12.3398 23.5699 12.4598 23.5699 12.6598C23.5699 12.7098 23.4099 13.1098 23.3799 13.1498C23.2099 13.3498 22.9199 13.2598 22.9199 12.9898C22.9199 12.8998 23.0999 12.4898 23.1899 12.4398V12.4298Z" fill="currentColor" stroke="currentColor" stroke-width="0.5" stroke-miterlimit="10"/>
<path d="M23.13 20.2798L18.17 16.3298L13.96 17.4098L13.41 17.3798C13.12 17.1898 13.11 16.8198 13.41 16.6398L17.21 15.6298L13.44 12.6898C12.69 12.6898 9.54003 13.8998 9.07003 13.5798C8.86003 13.4298 8.94003 12.9698 9.19003 12.8398C9.95003 12.4198 11.6 12.3498 12.46 11.9898L8.58003 9.30983C7.49003 9.36983 6.35003 9.98983 5.30003 10.1098C4.87003 10.1598 4.62003 10.1798 4.56003 9.67983L4.75003 9.34983L7.39003 8.54983C6.00003 7.84983 3.38003 6.25983 1.81003 6.71983C1.26003 6.87983 0.850028 7.38983 0.840028 7.96983C0.780028 9.84982 4.28003 14.0598 5.55003 15.5298C5.92003 15.9598 7.70003 17.6698 7.72003 18.0198C7.75003 18.4598 7.29003 18.5998 6.95003 18.3898C4.78003 15.8498 1.90003 13.1198 0.520028 10.0698C-0.679972 7.37983 0.170027 5.34983 3.37003 5.84983C5.90003 6.24983 10.49 9.38982 12.66 10.9398C16.72 13.8398 20.51 17.1298 24.45 20.1798L25.25 20.2798C24.9 19.4698 24.83 18.6998 25.1 17.8498C25.21 17.4998 25.67 16.8598 25.67 16.6298C25.67 16.4398 25.19 15.5798 25.1 15.1998C24.89 14.3698 24.87 13.7598 25.18 12.9498C25.29 12.6698 25.68 12.1798 25.68 11.9798C25.68 11.7998 25.22 10.9798 25.13 10.6298C24.8 9.39983 24.94 8.47983 25.65 7.42983C24.22 4.93983 24.71 1.91983 27.31 0.489826C28.92 -0.400174 31.7 -0.210175 31.93 2.03983C31.98 2.50983 31.82 2.92983 31.83 3.29983C31.86 4.12983 32.25 4.78983 32.13 5.83983C32.07 6.30983 31.71 6.93983 31.72 7.32983C31.72 7.69983 32.01 8.40983 32.04 8.90983C32.13 10.0698 31.72 10.9298 31.72 11.7698C31.72 12.4298 32.25 13.3798 32.04 14.1498C32.69 13.8398 33.26 13.4098 33.94 13.1498C35.39 12.5998 36.97 12.5198 38.47 12.8698L44.67 4.10983C45.11 3.64983 45.48 3.63983 46.02 3.90983C46.56 4.17983 48.94 5.86983 49.36 6.27983C49.71 6.62983 49.82 7.06983 49.57 7.51983L43.28 16.3098C43.93 17.5298 44.5 18.8498 44.41 20.2698H51.75C52.24 20.3498 52.54 20.5898 52.64 21.0898L52.32 25.3798C52.15 26.1398 51.25 25.9098 51.17 26.0498L48.05 42.9998C47.48 44.7098 46.02 45.7098 44.25 45.8598H13.24C11.4 45.8398 9.76003 44.8698 9.15003 43.0898L6.75003 31.4598C6.33003 31.0598 5.47003 31.1598 5.38003 30.4798L4.64003 21.1898C4.66003 20.8598 5.09003 20.2898 5.43003 20.2898H23.14L23.13 20.2798ZM26.2 6.64983C26.36 6.78983 27.26 5.93983 27.5 5.77983C28.75 4.93983 31.7 3.71983 30.93 1.76983C30.51 0.699826 28.77 0.799826 27.89 1.19983C25.76 2.18983 25.3 4.61983 26.2 6.64983ZM31.16 4.42983L28 6.49983C26.24 7.72983 25.21 9.11983 26.3 11.2998C26.46 11.3398 26.47 11.2598 26.56 11.1998C27.25 10.7198 28.42 9.72983 29.04 9.13983C30.37 7.88983 31.49 6.35983 31.15 4.42983H31.16ZM45.33 4.63983L42.69 8.38983L46.02 10.8698L48.7 7.02983L45.34 4.63983H45.33ZM26.3 15.9498C26.46 15.9998 26.48 15.8998 26.56 15.8498C27.63 15.1298 29.7 13.4198 30.36 12.3498C31.14 11.0698 31.28 9.80983 31.05 8.33983C30.53 8.81983 30.1 9.38983 29.57 9.86983C27.71 11.5698 24.65 12.8598 26.29 15.9498H26.3ZM32.12 20.2798H43.54C43.57 18.7798 42.83 17.5298 42.27 16.2198L45.55 11.5098L42.22 9.19983L38.78 13.7798C37.62 13.6198 36.55 13.4398 35.38 13.6398C34.41 13.8098 32.59 14.6498 31.98 15.4198C31.91 15.4998 31.19 17.2698 31.19 17.3698C31.19 17.5498 31.64 18.4198 31.74 18.7098C31.91 19.2198 32.01 19.7498 32.13 20.2698L32.12 20.2798ZM30.95 12.9898C29.6 15.5998 24.2 16.8098 26.35 20.4898C28.63 18.4998 31.4 17.2098 31.16 13.6698C31.16 13.5298 31.11 13.0298 30.95 12.9798V12.9898ZM32.12 21.2298C32.13 22.6998 31.43 24.3298 30.27 25.2398C29.99 25.4598 29.28 26.0098 29 25.5598C28.65 24.9898 29.4 24.8198 29.69 24.5598C31.57 22.8998 31.66 20.2698 30.48 18.1598C29.49 19.4998 26.12 21.0898 25.89 22.7698C25.85 23.0598 25.86 23.5098 25.89 23.8098C25.96 24.3998 26.81 25.5298 26.36 25.8898L26.04 25.9898C25.51 25.9398 24.96 23.9998 24.93 23.4998C24.87 22.6198 25.18 21.9298 25.67 21.2298H16.74L11.88 33.1798C11.82 33.2498 11.75 33.2698 11.66 33.2898C11.06 33.3998 8.62003 32.0598 7.86003 31.8098L7.81003 31.9698L9.19003 39.0998H16.43C17.02 39.2198 16.89 40.0498 16.33 40.0498H9.51003C9.71003 42.1398 10.07 44.4998 12.53 44.8998L44.34 44.9198C45.57 44.8698 46.75 44.0298 47.13 42.8498L50.2 25.9998H35.35C35.02 25.9998 34.85 25.3398 35.16 25.1498L51.3 25.0398L51.47 24.7898L51.68 21.2498H32.12V21.2298ZM15.62 21.2298H5.58003L6.26003 30.2198L11.13 32.2298L15.62 21.2298Z" fill="currentColor"/>
<path d="M22.97 34.98H33.65C33.7 34.98 33.93 35.25 33.92 35.36C33.98 35.5 33.73 35.83 33.65 35.83H22.97C22.92 35.83 22.69 35.56 22.7 35.45L22.97 34.98Z" fill="currentColor"/>
<path d="M32.17 30.3296H42.85C43.13 30.3296 43.13 31.1796 42.85 31.1796H32.17C32.12 31.1796 31.89 30.9096 31.9 30.7996L32.17 30.3296Z" fill="currentColor"/>
<path d="M22.1501 25.1699C22.5401 25.5599 22.2001 25.9399 21.7001 25.9899C20.5501 26.1199 17.5701 26.1099 16.4101 25.9899C15.6201 25.8999 15.6201 25.1199 16.4101 25.0399C17.6601 24.8999 20.3301 24.9299 21.6001 25.0399C21.7601 25.0499 22.0301 25.0599 22.1501 25.1799V25.1699Z" fill="currentColor"/>
<path d="M43.5901 39.0996C43.7501 39.1296 43.9301 39.3196 43.9301 39.4796C43.9301 39.6896 43.8001 39.8796 43.6101 39.9696C43.2301 40.1496 41.1501 40.1596 40.9401 39.7296C40.7701 39.5596 41.0201 39.0996 41.1501 39.0996C41.8301 39.0996 42.9701 38.9996 43.5801 39.0996H43.5901Z" fill="currentColor"/>
<path d="M54.38 14.96C54.04 14.68 53.8499 14.33 53.7999 13.9C53.7799 13.76 53.69 13.64 53.54 13.63C53.16 13.61 52.6299 13.81 52.5999 14.12L52.54 14.75C52.52 14.95 52.29 14.89 52.22 15.11C52.1 15.47 51.95 15.81 51.77 16.15L51.29 15.37C51.14 15.13 51.08 14.88 51.13 14.6C51.36 13.39 51.2499 11.87 49.8699 11.52C49.9099 11.1 50.18 10.71 50.59 10.58C50.73 10.53 50.81 10.42 50.79 10.3C50.76 10.16 50.6299 10.07 50.4799 10.1C49.88 10.25 49.4499 10.84 49.3699 11.46C47.9199 11.48 47.45 12.88 47.33 14.14C47.31 14.38 47.21 14.58 47.04 14.75L46.5299 15.23C46.3199 15.43 46.15 15.64 45.99 15.89C45.7 15.78 45.41 15.71 45.09 15.68C45.15 15.27 45.41 14.91 45.81 14.78C45.95 14.73 46.03 14.62 46 14.48C45.97 14.35 45.83 14.26 45.68 14.3C45.56 14.34 45.44 14.39 45.31 14.46C45.14 13.65 44.35 13.15 43.54 13.33C43.43 13.35 43.34 13.4 43.31 13.52C43.07 14.42 43.71 15.29 44.65 15.36L44.59 15.69C43.72 15.76 42.97 16.17 42.45 16.77C42.58 16.87 42.6599 17.02 42.6899 17.19C42.6899 17.2 42.7099 17.21 42.7099 17.23C42.7099 17.23 42.7099 17.23 42.7099 17.22C43.4299 16.27 44.7199 15.91 45.8499 16.39C46.9299 16.85 47.6 17.99 47.4 19.19L46.9199 19.23C47.0099 18.78 46.9799 18.35 46.7999 17.94C46.7399 17.81 46.58 17.78 46.47 17.84C46.36 17.89 46.31 18.03 46.36 18.16C46.5 18.51 46.52 18.87 46.41 19.23C46.04 19.2 45.6999 19.14 45.3499 19.06C45.2499 19.04 45.15 19.07 45.08 19.13C44.85 19.3 44.67 19.52 44.57 19.79C44.52 19.91 44.55 20.02 44.65 20.11C45.09 20.47 45.55 20.78 46.06 21.06C46.01 21.09 45.96 21.11 45.91 21.13C46.01 21.08 46.1299 21.04 46.2599 21.04C46.3899 21.04 46.51 21.07 46.61 21.12C46.71 21.07 46.8199 21.04 46.9599 21.04C47.0599 21.04 47.15 21.04 47.25 21.03C47.22 21.03 47.1899 21.01 47.1699 21C46.4199 20.73 45.7199 20.32 45.0999 19.83C45.1699 19.72 45.24 19.65 45.34 19.56C46.75 19.9 48.2299 19.72 49.5099 19.05C50.9999 18.28 52.14 16.96 52.68 15.39C52.87 15.28 53.01 15.12 53.04 14.9L53.11 14.28L53.3499 14.17C53.4499 14.59 53.6199 14.96 53.9599 15.26C54.0399 15.98 54.0399 16.71 53.8499 17.41C53.6099 18.28 53.2099 19.09 52.6199 19.77C52.2599 20.19 51.8299 20.54 51.3499 20.8C51.4999 20.89 51.5999 21.04 51.6399 21.2C51.9799 21.01 52.31 20.77 52.61 20.49C53.47 19.68 54 18.67 54.33 17.54C54.44 17.18 54.47 16.82 54.5 16.46V15.67C54.49 15.45 54.46 15.21 54.4 14.99L54.38 14.96ZM44.82 14.83C44.54 14.88 44.24 14.76 44.04 14.57C43.83 14.37 43.72 14.08 43.75 13.77C44.36 13.72 44.86 14.18 44.82 14.82V14.83ZM47.9 19.07C48.03 17.86 47.4599 16.75 46.4199 16.1C46.5699 15.86 46.7499 15.67 46.9599 15.48L47.4 15.07C47.65 14.81 47.7899 14.51 47.82 14.15C47.9 13.21 48.26 11.9 49.36 11.94C49.94 11.96 50.37 12.2 50.57 12.75C50.78 13.31 50.7199 13.97 50.6199 14.57C50.4799 15.43 51.1399 15.9 51.4399 16.66C50.5899 17.85 49.35 18.73 47.9 19.06V19.07Z" fill="currentColor"/>
<path d="M48.95 20.7501C48.78 20.7501 48.67 20.6701 48.65 20.5301C48.63 20.4201 48.72 20.2701 48.86 20.2601C49.43 20.2401 49.98 20.0901 50.49 19.8401C50.62 19.7801 50.76 19.8301 50.82 19.9401C50.88 20.0301 50.86 20.2001 50.74 20.2601C50.19 20.5501 49.59 20.7201 48.95 20.7501Z" fill="currentColor"/>
<path d="M51.1999 19.4502C51.3499 19.4502 51.4499 19.5602 51.4499 19.6802C51.4499 19.8302 51.3499 19.9302 51.2199 19.9402C51.0799 19.9602 50.9699 19.8502 50.9499 19.7202C50.9299 19.5802 51.0399 19.4502 51.1899 19.4502H51.1999Z" fill="currentColor"/>
<path d="M50.1799 14.4998C50.1599 14.6498 50.0299 14.7398 49.8999 14.7298C49.7499 14.7098 49.6599 14.5798 49.6799 14.4298C49.7499 14.0098 49.8499 13.1298 49.5699 12.9498C49.4399 12.8698 49.3599 12.7398 49.4399 12.5898C49.4999 12.4698 49.6599 12.4298 49.7999 12.4998C50.3999 12.8198 50.2899 13.8398 50.1799 14.4998Z" fill="currentColor"/>
<path d="M46.0601 17.1898C46.2001 17.1298 46.3401 17.2098 46.3901 17.3298C46.4401 17.4498 46.3801 17.5898 46.2501 17.6498C46.1201 17.7098 45.9901 17.6498 45.9301 17.5298C45.8601 17.4098 45.9101 17.2398 46.0601 17.1898Z" fill="currentColor"/>
<path d="M9.52837 50.2568C9.49374 49.9643 9.35328 49.7373 9.10699 49.5756C8.8607 49.414 8.55862 49.3332 8.20073 49.3332C7.93905 49.3332 7.71008 49.3755 7.51382 49.4602C7.31948 49.5448 7.16748 49.6613 7.0578 49.8094C6.95005 49.9576 6.89618 50.1259 6.89618 50.3145C6.89618 50.4723 6.9337 50.6079 7.00874 50.7214C7.0857 50.833 7.18383 50.9264 7.30313 51.0014C7.42242 51.0745 7.54749 51.1351 7.67833 51.1832C7.80917 51.2294 7.92943 51.2669 8.0391 51.2958L8.63943 51.4574C8.79336 51.4978 8.96461 51.5536 9.15317 51.6248C9.34366 51.696 9.52549 51.7932 9.69866 51.9163C9.87375 52.0375 10.0181 52.1934 10.1316 52.3839C10.2451 52.5744 10.3019 52.8082 10.3019 53.0852C10.3019 53.4046 10.2182 53.6932 10.0508 53.9511C9.8853 54.2089 9.64286 54.4138 9.32345 54.5658C9.00597 54.7178 8.62019 54.7938 8.1661 54.7938C7.74279 54.7938 7.37624 54.7255 7.06646 54.5889C6.7586 54.4523 6.51616 54.2618 6.33914 54.0175C6.16405 53.7731 6.06496 53.4893 6.04187 53.166H6.78073C6.79997 53.3892 6.87501 53.574 7.00585 53.7202C7.13862 53.8645 7.30601 53.9722 7.50805 54.0434C7.712 54.1127 7.93135 54.1473 8.1661 54.1473C8.43932 54.1473 8.68465 54.1031 8.90207 54.0146C9.1195 53.9241 9.29171 53.7991 9.4187 53.6394C9.54569 53.4777 9.60919 53.2892 9.60919 53.0737C9.60919 52.8774 9.55435 52.7177 9.44467 52.5946C9.335 52.4714 9.19069 52.3714 9.01175 52.2944C8.8328 52.2174 8.63943 52.1501 8.43162 52.0924L7.70431 51.8846C7.24252 51.7518 6.87694 51.5623 6.60756 51.316C6.33818 51.0697 6.20349 50.7474 6.20349 50.3491C6.20349 50.0182 6.29296 49.7296 6.47191 49.4833C6.65278 49.2351 6.89521 49.0426 7.19923 48.906C7.50516 48.7675 7.84669 48.6982 8.22382 48.6982C8.6048 48.6982 8.94344 48.7665 9.23976 48.9031C9.53607 49.0378 9.77081 49.2226 9.94398 49.4573C10.1191 49.692 10.2114 49.9585 10.2211 50.2568H9.52837ZM12.6909 54.7938C12.41 54.7938 12.155 54.7409 11.9261 54.6351C11.6971 54.5274 11.5153 54.3725 11.3806 54.1704C11.2459 53.9665 11.1785 53.7202 11.1785 53.4316C11.1785 53.1776 11.2286 52.9717 11.3286 52.8139C11.4287 52.6542 11.5624 52.5292 11.7298 52.4387C11.8972 52.3483 12.0819 52.2809 12.284 52.2367C12.4879 52.1905 12.6928 52.154 12.8987 52.127C13.1681 52.0924 13.3865 52.0664 13.5539 52.0491C13.7232 52.0298 13.8463 51.9981 13.9233 51.9538C14.0022 51.9096 14.0416 51.8326 14.0416 51.7229V51.6999C14.0416 51.4151 13.9637 51.1938 13.8079 51.036C13.6539 50.8783 13.4201 50.7994 13.1065 50.7994C12.7813 50.7994 12.5264 50.8706 12.3417 51.0129C12.157 51.1553 12.0271 51.3073 11.952 51.469L11.3055 51.2381C11.421 50.9687 11.5749 50.759 11.7673 50.6089C11.9617 50.4569 12.1733 50.351 12.4023 50.2914C12.6332 50.2298 12.8602 50.199 13.0834 50.199C13.2258 50.199 13.3894 50.2164 13.5741 50.251C13.7607 50.2837 13.9406 50.352 14.1138 50.4559C14.2889 50.5598 14.4342 50.7166 14.5496 50.9264C14.6651 51.1361 14.7228 51.417 14.7228 51.7691V54.6899H14.0416V54.0896H14.007C13.9608 54.1858 13.8839 54.2888 13.7761 54.3984C13.6684 54.5081 13.525 54.6014 13.3461 54.6784C13.1671 54.7554 12.9487 54.7938 12.6909 54.7938ZM12.7948 54.182C13.0642 54.182 13.2912 54.1291 13.4759 54.0232C13.6626 53.9174 13.803 53.7808 13.8973 53.6134C13.9935 53.446 14.0416 53.2699 14.0416 53.0852V52.4618C14.0128 52.4964 13.9493 52.5282 13.8512 52.5571C13.7549 52.584 13.6433 52.608 13.5164 52.6292C13.3913 52.6484 13.2691 52.6658 13.1498 52.6812C13.0324 52.6946 12.9372 52.7062 12.8641 52.7158C12.6871 52.7389 12.5216 52.7764 12.3677 52.8284C12.2156 52.8784 12.0925 52.9544 11.9982 53.0564C11.9059 53.1564 11.8597 53.293 11.8597 53.4662C11.8597 53.7029 11.9472 53.8818 12.1223 54.003C12.2993 54.1223 12.5235 54.182 12.7948 54.182ZM17.767 54.7823C17.3668 54.7823 17.0156 54.6871 16.7135 54.4966C16.4134 54.3061 16.1786 54.0396 16.0093 53.6971C15.8419 53.3546 15.7582 52.9544 15.7582 52.4964C15.7582 52.0347 15.8419 51.6316 16.0093 51.2871C16.1786 50.9427 16.4134 50.6753 16.7135 50.4848C17.0156 50.2943 17.3668 50.199 17.767 50.199C18.1672 50.199 18.5174 50.2943 18.8175 50.4848C19.1196 50.6753 19.3544 50.9427 19.5218 51.2871C19.6911 51.6316 19.7758 52.0347 19.7758 52.4964C19.7758 52.9544 19.6911 53.3546 19.5218 53.6971C19.3544 54.0396 19.1196 54.3061 18.8175 54.4966C18.5174 54.6871 18.1672 54.7823 17.767 54.7823ZM17.767 54.1704C18.071 54.1704 18.3211 54.0925 18.5174 53.9366C18.7136 53.7808 18.8589 53.5759 18.9532 53.3219C19.0475 53.0679 19.0946 52.7928 19.0946 52.4964C19.0946 52.2001 19.0475 51.924 18.9532 51.6681C18.8589 51.4122 18.7136 51.2054 18.5174 51.0476C18.3211 50.8898 18.071 50.8109 17.767 50.8109C17.463 50.8109 17.2128 50.8898 17.0166 51.0476C16.8203 51.2054 16.675 51.4122 16.5808 51.6681C16.4865 51.924 16.4393 52.2001 16.4393 52.4964C16.4393 52.7928 16.4865 53.0679 16.5808 53.3219C16.675 53.5759 16.8203 53.7808 17.0166 53.9366C17.2128 54.0925 17.463 54.1704 17.767 54.1704ZM18.3673 49.7257L17.767 48.9176L17.1667 49.7257H16.5201V49.6795L17.4553 48.4789H18.0787L19.0138 49.6795V49.7257H18.3673ZM21.4966 52.0231V54.6899H20.8155V50.2568H21.4736V50.9495H21.5313C21.6352 50.7243 21.793 50.5435 22.0046 50.4068C22.2163 50.2683 22.4895 50.199 22.8243 50.199C23.1245 50.199 23.3871 50.2606 23.6122 50.3838C23.8373 50.505 24.0124 50.6897 24.1375 50.9379C24.2626 51.1842 24.3251 51.4959 24.3251 51.873V54.6899H23.644V51.9192C23.644 51.5709 23.5535 51.2996 23.3727 51.1053C23.1918 50.909 22.9436 50.8109 22.628 50.8109C22.4106 50.8109 22.2163 50.8581 22.045 50.9523C21.8757 51.0466 21.742 51.1842 21.6438 51.3651C21.5457 51.5459 21.4966 51.7653 21.4966 52.0231ZM27.4285 54.7823C27.0013 54.7823 26.6328 54.688 26.3231 54.4995C26.0152 54.309 25.7776 54.0434 25.6102 53.7029C25.4447 53.3604 25.362 52.9621 25.362 52.508C25.362 52.0539 25.4447 51.6537 25.6102 51.3073C25.7776 50.9591 26.0104 50.6878 26.3086 50.4934C26.6088 50.2972 26.959 50.199 27.3592 50.199C27.5901 50.199 27.8181 50.2375 28.0432 50.3145C28.2683 50.3915 28.4733 50.5165 28.658 50.6897C28.8427 50.8609 28.9899 51.088 29.0996 51.3708C29.2092 51.6537 29.2641 52.0019 29.2641 52.4156V52.7042H25.8468V52.1155H28.5714C28.5714 51.8653 28.5214 51.6421 28.4213 51.4459C28.3232 51.2496 28.1827 51.0947 27.9999 50.9812C27.8191 50.8677 27.6055 50.8109 27.3592 50.8109C27.0879 50.8109 26.8532 50.8783 26.655 51.0129C26.4587 51.1457 26.3077 51.3189 26.2018 51.5325C26.096 51.746 26.0431 51.975 26.0431 52.2194V52.6119C26.0431 52.9467 26.1008 53.2305 26.2163 53.4633C26.3336 53.6942 26.4962 53.8703 26.704 53.9915C26.9118 54.1108 27.1533 54.1704 27.4285 54.1704C27.6074 54.1704 27.769 54.1454 27.9133 54.0954C28.0596 54.0434 28.1856 53.9665 28.2914 53.8645C28.3973 53.7606 28.479 53.6317 28.5368 53.4777L29.1948 53.6625C29.1255 53.8857 29.0091 54.0819 28.8456 54.2512C28.682 54.4186 28.48 54.5495 28.2395 54.6438C27.999 54.7361 27.7286 54.7823 27.4285 54.7823ZM30.3926 54.6899V48.779H31.1083V54.055H33.856V54.6899H30.3926ZM36.6729 54.7823C36.2727 54.7823 35.9215 54.6871 35.6194 54.4966C35.3193 54.3061 35.0845 54.0396 34.9152 53.6971C34.7478 53.3546 34.6641 52.9544 34.6641 52.4964C34.6641 52.0347 34.7478 51.6316 34.9152 51.2871C35.0845 50.9427 35.3193 50.6753 35.6194 50.4848C35.9215 50.2943 36.2727 50.199 36.6729 50.199C37.0731 50.199 37.4233 50.2943 37.7235 50.4848C38.0256 50.6753 38.2603 50.9427 38.4277 51.2871C38.597 51.6316 38.6817 52.0347 38.6817 52.4964C38.6817 52.9544 38.597 53.3546 38.4277 53.6971C38.2603 54.0396 38.0256 54.3061 37.7235 54.4966C37.4233 54.6871 37.0731 54.7823 36.6729 54.7823ZM36.6729 54.1704C36.9769 54.1704 37.2271 54.0925 37.4233 53.9366C37.6196 53.7808 37.7648 53.5759 37.8591 53.3219C37.9534 53.0679 38.0005 52.7928 38.0005 52.4964C38.0005 52.2001 37.9534 51.924 37.8591 51.6681C37.7648 51.4122 37.6196 51.2054 37.4233 51.0476C37.2271 50.8898 36.9769 50.8109 36.6729 50.8109C36.3689 50.8109 36.1188 50.8898 35.9225 51.0476C35.7262 51.2054 35.581 51.4122 35.4867 51.6681C35.3924 51.924 35.3453 52.2001 35.3453 52.4964C35.3453 52.7928 35.3924 53.0679 35.4867 53.3219C35.581 53.5759 35.7262 53.7808 35.9225 53.9366C36.1188 54.0925 36.3689 54.1704 36.6729 54.1704ZM41.5224 54.7823C41.1068 54.7823 40.7489 54.6842 40.4488 54.4879C40.1486 54.2916 39.9177 54.0213 39.7561 53.6769C39.5944 53.3325 39.5136 52.939 39.5136 52.4964C39.5136 52.0462 39.5964 51.6489 39.7618 51.3045C39.9292 50.9581 40.1621 50.6878 40.4603 50.4934C40.7605 50.2972 41.1106 50.199 41.5109 50.199C41.8226 50.199 42.1035 50.2568 42.3536 50.3722C42.6038 50.4877 42.8087 50.6493 42.9684 50.8571C43.1281 51.0649 43.2272 51.3073 43.2657 51.5844H42.5845C42.5326 51.3824 42.4171 51.2034 42.2382 51.0476C42.0612 50.8898 41.8226 50.8109 41.5224 50.8109C41.2569 50.8109 41.0241 50.8802 40.824 51.0187C40.6258 51.1553 40.4709 51.3487 40.3593 51.5988C40.2496 51.8471 40.1948 52.1386 40.1948 52.4734C40.1948 52.8158 40.2486 53.1141 40.3564 53.3681C40.4661 53.6221 40.62 53.8193 40.8182 53.9597C41.0183 54.1002 41.253 54.1704 41.5224 54.1704C41.6994 54.1704 41.8601 54.1396 42.0044 54.0781C42.1487 54.0165 42.2709 53.928 42.3709 53.8125C42.471 53.6971 42.5422 53.5586 42.5845 53.3969H43.2657C43.2272 53.6586 43.1319 53.8943 42.9799 54.104C42.8299 54.3119 42.6307 54.4773 42.3825 54.6005C42.1362 54.7217 41.8495 54.7823 41.5224 54.7823ZM45.566 54.7938C45.285 54.7938 45.0301 54.7409 44.8011 54.6351C44.5721 54.5274 44.3903 54.3725 44.2556 54.1704C44.1209 53.9665 44.0536 53.7202 44.0536 53.4316C44.0536 53.1776 44.1036 52.9717 44.2037 52.8139C44.3037 52.6542 44.4375 52.5292 44.6049 52.4387C44.7723 52.3483 44.957 52.2809 45.159 52.2367C45.363 52.1905 45.5679 52.154 45.7738 52.127C46.0431 52.0924 46.2615 52.0664 46.4289 52.0491C46.5982 52.0298 46.7214 51.9981 46.7983 51.9538C46.8772 51.9096 46.9167 51.8326 46.9167 51.7229V51.6999C46.9167 51.4151 46.8388 51.1938 46.6829 51.036C46.529 50.8783 46.2952 50.7994 45.9816 50.7994C45.6564 50.7994 45.4014 50.8706 45.2167 51.0129C45.032 51.1553 44.9021 51.3073 44.8271 51.469L44.1806 51.2381C44.296 50.9687 44.45 50.759 44.6424 50.6089C44.8367 50.4569 45.0484 50.351 45.2773 50.2914C45.5082 50.2298 45.7353 50.199 45.9585 50.199C46.1009 50.199 46.2644 50.2164 46.4491 50.251C46.6358 50.2837 46.8157 50.352 46.9888 50.4559C47.1639 50.5598 47.3092 50.7166 47.4247 50.9264C47.5401 51.1361 47.5978 51.417 47.5978 51.7691V54.6899H46.9167V54.0896H46.882C46.8359 54.1858 46.7589 54.2888 46.6512 54.3984C46.5434 54.5081 46.4001 54.6014 46.2211 54.6784C46.0422 54.7554 45.8238 54.7938 45.566 54.7938ZM45.6699 54.182C45.9392 54.182 46.1663 54.1291 46.351 54.0232C46.5376 53.9174 46.6781 53.7808 46.7724 53.6134C46.8686 53.446 46.9167 53.2699 46.9167 53.0852V52.4618C46.8878 52.4964 46.8243 52.5282 46.7262 52.5571C46.63 52.584 46.5184 52.608 46.3914 52.6292C46.2663 52.6484 46.1441 52.6658 46.0249 52.6812C45.9075 52.6946 45.8122 52.7062 45.7391 52.7158C45.5621 52.7389 45.3966 52.7764 45.2427 52.8284C45.0907 52.8784 44.9675 52.9544 44.8733 53.0564C44.7809 53.1564 44.7347 53.293 44.7347 53.4662C44.7347 53.7029 44.8223 53.8818 44.9974 54.003C45.1744 54.1223 45.3986 54.182 45.6699 54.182ZM49.5222 48.779V54.6899H48.841V48.779H49.5222Z" fill="currentColor"/>
<defs>
<clipPath id="clip0_260_113">
<rect width="54.48" height="56.63" fill="currentColor"/>
</clipPath>
</defs>
</svg>
